# 
# 
mtllib Beer_Crate.mtl
v 0.257207 0.027539 -0.564769
v 0.257207 0.027539 0.574256
v 0.257207 0.279127 0.574256
v -0.319294 0.778519 0.624339
v 0.539762 0.778506 0.624197
v 0.506787 0.778506 0.431219
v 0.539762 0.778506 -0.624242
v 0.506787 0.778506 -0.431219
v 0.452184 0.778506 -0.553755
v -0.539771 0.778506 -0.624242
v -0.319294 0.778506 -0.596615
v -0.319294 -0.000000 0.596615
v -0.506787 0.778506 -0.431219
v -0.539860 0.778385 -0.431219
v 0.319293 -0.000002 0.624339
v 0.319293 0.778519 0.624339
v -0.539771 -0.000001 -0.624242
v -0.319294 0.778506 -0.624296
v 0.319293 0.778506 -0.624296
v 0.257207 0.279126 -0.564769
v 0.232212 0.279127 0.574256
v -0.012153 0.027539 0.574256
v -0.012153 0.027539 -0.564769
v -0.012153 0.235875 -0.564769
v 0.012843 0.027539 -0.564769
v 0.012843 0.027539 0.574256
v 0.012843 0.235876 0.574256
v 0.012843 0.235875 -0.564769
v -0.012153 0.235876 0.574256
v -0.256517 0.027539 0.574256
v -0.256517 0.027539 -0.564769
v -0.256517 0.235876 0.574256
v -0.231520 0.027539 -0.564769
v -0.231520 0.027539 0.574256
v -0.231520 0.235876 0.574256
v -0.256517 0.235875 -0.564769
v -0.231520 0.235875 -0.564769
v 0.539871 0.778506 0.431219
v 0.539871 -0.000001 -0.431219
v -0.539771 0.778506 0.624197
v -0.539860 0.000007 0.431220
v -0.539860 0.778385 0.431219
v -0.539860 0.000007 -0.431219
v 0.539871 0.778506 -0.431219
v 0.539762 -0.000001 -0.624242
v 0.539762 -0.000000 0.624197
v 0.539871 -0.000000 0.431220
v 0.455054 0.027539 -0.393995
v -0.454364 0.027539 -0.393995
v -0.454364 0.027539 -0.414924
v 0.455054 0.027539 -0.414926
v -0.454364 0.279126 -0.414926
v 0.455054 0.279126 -0.414926
v 0.455054 0.279126 -0.393995
v -0.454364 0.279126 -0.393995
v 0.455054 0.027539 -0.189395
v 0.455054 0.279126 -0.189395
v -0.454364 0.027539 -0.189395
v -0.454364 0.027539 -0.210324
v 0.455054 0.027539 -0.210324
v -0.454364 0.279126 -0.210324
v 0.455054 0.279126 -0.210324
v -0.454364 0.279126 -0.189395
v 0.455054 0.027539 0.015208
v -0.454364 0.279126 0.015208
v 0.455054 0.279126 0.015208
v -0.454364 0.027539 0.015208
v -0.454364 0.027539 -0.005721
v 0.455054 0.027539 -0.005721
v 0.455054 0.279126 -0.005721
v -0.454364 0.279126 -0.005721
v 0.455054 0.027539 0.219811
v -0.454364 0.027539 0.219811
v -0.454364 0.027539 0.198882
v 0.455054 0.027539 0.198880
v 0.455054 0.279126 0.198880
v 0.455054 0.279126 0.219811
v -0.454364 0.279126 0.219811
v -0.454364 0.279126 0.198882
v 0.455054 0.027539 0.424412
v -0.454364 0.279127 0.424412
v 0.455054 0.279127 0.424412
v -0.454364 0.027539 0.424412
v -0.454364 0.027539 0.403482
v 0.455054 0.027539 0.403482
v 0.455054 0.279127 0.403482
v -0.454364 0.279127 0.403482
v 0.232212 0.027539 0.574256
v 0.232210 0.279126 -0.564769
v 0.232210 0.027539 -0.564769
v 0.319293 -0.000001 -0.431219
v -0.319294 -0.000000 0.431220
v 0.506787 -0.000001 -0.596615
v -0.539771 -0.000000 0.624197
v -0.319294 -0.000002 0.624339
v -0.506787 -0.000000 0.596615
v 0.319293 -0.000000 0.431220
v 0.506787 -0.000000 0.596615
v 0.319293 -0.000000 0.596615
v 0.319293 -0.000001 -0.624296
v 0.319293 -0.000001 -0.596615
v -0.319294 -0.000001 -0.431219
v -0.506787 -0.000001 -0.596615
v -0.506787 -0.000001 -0.431219
v -0.319294 -0.000001 -0.624296
v 0.143584 0.616969 -0.596615
v 0.161106 0.645379 -0.553671
v 0.143557 0.706951 -0.553671
v -0.161106 0.678581 -0.553671
v -0.161149 0.678546 -0.596615
v -0.161106 0.645379 -0.553671
v -0.143595 0.616969 -0.596615
v 0.143530 0.617052 0.553754
v 0.161106 0.678582 0.596698
v 0.161075 0.678617 0.553754
v -0.143557 0.706951 0.596698
v -0.143519 0.706983 0.553754
v -0.161106 0.678582 0.596698
v -0.161106 0.645380 0.596698
v -0.161063 0.645418 0.553754
v -0.143557 0.617012 0.596698
v -0.452185 0.678617 0.118852
v -0.505233 0.678581 0.118871
v -0.505233 0.645380 0.118871
v -0.452185 0.617052 0.102169
v -0.505233 0.617012 -0.102186
v -0.505233 0.645380 -0.118871
v -0.505233 0.678581 -0.118871
v -0.452185 0.678617 -0.118845
v -0.452185 0.706983 0.102169
v 0.453738 0.678581 0.118871
v 0.453738 0.617012 -0.102186
v 0.453738 0.678581 -0.118871
v 0.453738 0.706951 -0.102186
v 0.453738 0.706951 0.102184
v 0.506789 0.678546 -0.118897
v 0.453738 0.645380 -0.118871
v 0.506789 0.645343 -0.118897
v 0.506789 0.616969 -0.102208
v 0.453738 0.617012 0.102186
v 0.453738 0.645380 0.118871
v 0.506789 0.616969 0.102201
v 0.506787 0.678546 0.118888
v 0.161106 0.678581 -0.553671
v 0.143557 0.617012 -0.553671
v 0.452184 0.054225 -0.553755
v -0.143557 0.617012 -0.553671
v -0.143557 0.706951 -0.553671
v -0.452185 0.645418 0.118852
v -0.452185 0.706983 -0.102163
v -0.452185 0.778506 -0.553755
v -0.452185 0.778506 0.553754
v -0.452185 0.617052 -0.102163
v -0.452185 0.645418 -0.118845
v -0.452185 0.054225 -0.553755
v -0.143519 0.617052 0.553754
v 0.452184 0.054225 0.553754
v 0.161075 0.645418 0.553754
v 0.452184 0.778506 0.553754
v 0.143530 0.706983 0.553754
v -0.161063 0.678617 0.553754
v -0.452185 0.054225 0.553754
v 0.506789 0.706920 -0.102208
v 0.506787 -0.000001 -0.431219
v 0.506787 -0.000000 0.431220
v 0.506789 0.645343 0.118888
v 0.506787 0.706920 0.102201
v -0.143595 0.706920 -0.596615
v 0.319293 0.778506 -0.596615
v -0.161149 0.645342 -0.596615
v -0.319294 -0.000001 -0.596615
v 0.161137 0.645342 -0.596615
v 0.143584 0.706920 -0.596615
v 0.161137 0.678546 -0.596615
v -0.505233 0.706951 -0.102186
v -0.505233 0.706951 0.102186
v -0.506787 0.778506 0.431219
v -0.505233 0.617012 0.102186
v -0.506787 -0.000000 0.431220
v 0.143557 0.706951 0.596698
v -0.319294 0.778506 0.596615
v 0.319293 0.778506 0.596615
v 0.161106 0.645380 0.596698
v 0.143557 0.617012 0.596698
vt 0.508789 0.224121
vt 0.188965 0.119629
vt 0.508789 0.119629
vt 0.188965 0.224121
vt 0.576172 0.119629
vt 0.007026 0.119629
vt 0.007026 0.224121
vt 0.576172 0.224121
vt 0.981934 0.318848
vt 0.993652 0.246094
vt 0.993652 0.318848
vt 0.913086 0.592773
vt 0.993652 0.603760
vt 0.913086 0.603760
vt 0.964355 0.574707
vt 0.981934 0.530762
vt 0.964355 0.274902
vt 0.913086 0.256836
vt 0.913086 0.246094
vt 0.993652 0.530762
vt 0.553223 0.592773
vt 0.501953 0.274902
vt 0.553223 0.256836
vt 0.472900 0.603760
vt 0.553223 0.603760
vt 0.501953 0.574707
vt 0.472900 0.246094
vt 0.553223 0.246094
vt 0.484375 0.318848
vt 0.484375 0.530762
vt 0.472900 0.530762
vt 0.472900 0.318848
vt 0.550293 0.989068
vt 0.563965 0.607178
vt 0.563965 0.989068
vt 0.550293 0.607178
vt 0.809082 0.609131
vt 0.795410 0.991028
vt 0.795410 0.609131
vt 0.809082 0.991028
vt 0.971680 0.991028
vt 0.985352 0.609131
vt 0.985352 0.991028
vt 0.971680 0.609131
vt 0.812012 0.991028
vt 0.887207 0.609131
vt 0.887207 0.991028
vt 0.812012 0.609131
vt 0.547363 0.607178
vt 0.472412 0.989068
vt 0.472412 0.607178
vt 0.547363 0.989068
vt 0.507813 0.277832
vt 0.959961 0.570068
vt 0.507813 0.570068
vt 0.959961 0.277832
vt 0.007026 0.241211
vt 0.576172 0.241211
vt 0.384277 0.607178
vt 0.370605 0.989068
vt 0.370605 0.607178
vt 0.384277 0.989068
vt 0.389404 0.989068
vt 0.468262 0.607178
vt 0.468262 0.989068
vt 0.389404 0.607178
vt 0.969238 0.609131
vt 0.890625 0.991028
vt 0.890625 0.609131
vt 0.969238 0.991028
vt 0.188965 0.241211
vt 0.508789 0.241211
vt 0.947754 0.054687
vt 0.723633 0.014648
vt 0.947754 0.014648
vt 0.723633 0.054687
vt 0.947754 0.190918
vt 0.723633 0.190918
vt 0.947754 0.230957
vt 0.990723 0.230957
vt 0.680664 0.014648
vt 0.723633 0.230957
vt 0.997559 0.237793
vt 0.947754 0.237793
vt 0.997559 0.190918
vt 0.990723 0.190918
vt 0.990723 0.054687
vt 0.990723 0.014648
vt 0.947754 0.007324
vt 0.997559 0.007324
vt 0.997559 0.054687
vt 0.673828 0.007324
vt 0.723633 0.007324
vt 0.673828 0.054687
vt 0.680664 0.054687
vt 0.680664 0.190918
vt 0.680664 0.230957
vt 0.723633 0.237793
vt 0.673828 0.237793
vt 0.673828 0.190918
vt 0.295898 0.110352
vt 0.203125 0.093262
vt 0.295898 0.093262
vt 0.203125 0.110352
vt 0.188477 0.110352
vt 0.188477 0.093262
vt 0.171265 0.110352
vt 0.171265 0.093262
vt 0.156616 0.110352
vt 0.156616 0.093262
vt 0.057220 0.093262
vt 0.057220 0.110352
vt 0.042572 0.110352
vt 0.042572 0.093262
vt 0.025405 0.110352
vt 0.025405 0.093262
vt 0.010734 0.110352
vt 0.010734 0.093262
vt 0.288330 0.554932
vt 0.469238 0.604004
vt 0.280518 0.568848
vt 0.288330 0.538574
vt 0.280518 0.524658
vt 0.469238 0.249023
vt 0.196045 0.524658
vt 0.008224 0.249023
vt 0.008224 0.604004
vt 0.188110 0.538574
vt 0.188110 0.554932
vt 0.196045 0.568848
vt 0.230469 0.954163
vt 0.008010 0.989068
vt 0.145264 0.954163
vt 0.367676 0.989068
vt 0.237427 0.940217
vt 0.367676 0.607178
vt 0.237427 0.923768
vt 0.230469 0.909852
vt 0.145264 0.909852
vt 0.008010 0.607178
vt 0.138306 0.923768
vt 0.138306 0.940217
vt 0.730957 0.955903
vt 0.569336 0.991028
vt 0.630371 0.955903
vt 0.791992 0.991028
vt 0.736816 0.941987
vt 0.736816 0.925721
vt 0.791992 0.609131
vt 0.730957 0.911805
vt 0.630371 0.911805
vt 0.569336 0.609131
vt 0.624512 0.925721
vt 0.624512 0.941987
vt 0.230469 0.953766
vt 0.145264 0.953766
vt 0.237427 0.939850
vt 0.138306 0.939850
vn 0.000000 0.707083 -0.707083
vn 0.000000 0.000000 -1.000000
vn 0.000000 0.000000 1.000000
vn 0.000000 0.707083 0.707083
vn 1.000000 0.000000 0.000000
vn 0.707083 0.707083 0.000000
vn 0.168737 0.507462 0.844966
vn -0.219245 0.872707 0.436201
vn 0.816462 0.408368 0.408185
vn 0.845149 0.507096 -0.169012
vn 0.436537 0.872768 0.218329
vn 0.408307 0.408307 -0.816401
vn -0.539232 0.537004 -0.648701
vn -0.333048 0.666860 0.666555
vn 0.646992 0.539140 -0.539140
vn -0.558977 0.739982 -0.374065
vn -0.817011 0.407758 -0.407636
vn -0.407849 0.408399 0.816614
vn 0.557054 0.742759 0.371380
vn 0.538987 0.539354 0.646931
vn -0.788537 0.581896 0.198889
vn 0.218299 0.872799 -0.436506
vn 0.816645 0.408307 0.407849
vn -0.647877 0.535569 0.541642
vn -0.437086 0.872524 -0.218177
vn -0.409436 0.407971 0.816004
vn 0.333323 0.666646 -0.666646
vn -0.169012 0.507065 -0.845149
vn -0.816462 0.408277 -0.408277
vn 0.408063 0.408277 -0.816553
vn 0.426252 -0.639668 0.639607
vn 0.332926 -0.666768 0.666738
vn -0.816401 -0.408338 0.408307
vn -0.154180 -0.771538 0.617176
vn 0.816462 -0.408277 -0.408277
vn 0.154302 -0.771508 -0.617206
vn -0.742454 -0.556108 0.373455
vn -0.666768 -0.666677 0.333048
vn 0.267556 -0.801630 0.534562
vn -0.534654 -0.801630 0.267434
vn -0.267373 -0.801691 -0.534562
vn -0.333171 -0.666677 -0.666677
vn 0.534501 -0.801660 -0.267525
vn 0.727561 0.485061 0.485092
vn -0.726829 0.485885 -0.485366
vn -0.533952 0.267678 0.801996
vn 0.534501 0.267251 -0.801782
vn -0.707083 0.707083 0.000000
vn -1.000000 0.000000 0.000000
vn -0.408368 -0.408277 -0.816401
vn -0.700400 -0.699484 -0.141789
vn 0.639576 -0.639576 -0.426374
vn 0.666738 -0.666738 -0.332987
vn 0.408307 -0.408307 0.816401
vn 0.700125 -0.700125 0.140019
vn -0.426374 -0.639576 -0.639576
vn 0.000000 -1.000000 0.000000
vn -0.000031 -1.000000 0.000000
vn 0.320322 0.574999 0.752800
vn -0.369091 0.662343 -0.651936
vn 0.320017 0.574297 -0.753471
vn -0.244911 0.439741 0.864071
vn -0.767205 0.298868 0.567461
vn -0.683004 0.126041 -0.719443
vn -0.809564 -0.149388 0.567675
vn -0.766808 -0.298715 -0.568102
vn -0.369335 -0.662343 0.651814
vn -0.320292 -0.574755 -0.753014
vn 0.369335 -0.662801 -0.651326
vn 0.320200 -0.574267 0.753410
vn 0.767083 -0.298837 0.567644
vn 0.809076 -0.149327 -0.568377
vn 0.809778 0.149419 0.567370
vn 0.647023 0.252052 -0.719565
vn 0.369091 0.662282 0.652028
vn -0.320414 0.574969 -0.752800
vn 0.245094 0.439802 -0.863979
vn -0.320017 0.574297 0.753471
vn -0.646962 0.252113 0.719596
vn -0.809717 0.149419 -0.567431
vn -0.809107 -0.149297 0.568346
vn -0.767052 -0.298807 -0.567705
vn -0.369457 -0.662557 0.651540
vn -0.320200 -0.574541 -0.753197
vn 0.369304 -0.662648 -0.651509
vn 0.320231 -0.574389 0.753319
vn 0.766625 -0.298654 0.568377
vn 0.809717 -0.149419 -0.567431
vn 0.682730 0.126041 0.719687
vn 0.767388 0.298929 -0.567217
vn 0.566790 -0.287362 -0.772088
vn -0.649037 -0.662374 -0.374096
vn 0.755272 -0.568896 -0.325388
vn -0.716544 -0.121647 -0.686819
vn 0.566576 0.143712 -0.811335
vn -0.566210 0.287179 -0.772576
vn 0.754936 0.569231 -0.325571
vn -0.754570 0.569597 -0.325816
vn -0.653432 0.657186 0.375591
vn 0.865413 0.434919 0.248787
vn 0.566454 0.287454 0.772301
vn -0.566210 0.143773 0.811579
vn 0.566637 -0.143681 0.811304
vn -0.716575 -0.242714 0.653890
vn 0.653920 -0.656697 0.375622
vn -0.750725 -0.574938 0.325236
vn -0.565813 -0.143986 -0.811823
vn -0.649464 -0.662130 -0.373791
vn -0.565447 0.287606 -0.772973
vn -0.864345 0.435926 -0.250710
vn -0.753899 0.570025 0.326640
vn -0.565416 0.144169 0.812067
vn -0.565813 -0.287454 0.772759
vn -0.751091 -0.574694 0.324839
vn 0.718314 -0.121342 0.685018
vn 0.567248 0.287271 0.771783
vn 0.755425 0.568743 0.325297
vn 0.654134 0.656545 -0.375530
vn 0.718345 0.121342 -0.684988
vn 0.566881 -0.287332 -0.772027
vn 0.755058 -0.569109 -0.325510
vn 0.653645 -0.656911 0.375744
usemtl Beer_Crate
s 1
f 52/1/1 51/2/2 50/3/2
f 61/4/1 60/3/2 59/2/2
f 67/2/3 66/1/4 65/4/4
f 83/3/3 82/4/4 81/1/4
f 2/5/5 1/6/5 20/7/6
f 2/5/5 20/7/6 3/8/6
f 181/9/7 40/10/8 4/11/9
f 6/12/10 5/13/11 38/14/12
f 5/13/11 6/12/10 159/15/13
f 182/16/14 5/13/11 159/15/13
f 152/17/15 182/16/14 159/15/13
f 182/16/14 152/17/15 181/9/7
f 40/10/8 181/9/7 152/17/15
f 177/18/16 40/10/8 152/17/15
f 40/10/8 177/18/16 42/19/17
f 5/13/11 182/16/14 16/20/18
f 8/21/19 159/15/13 6/12/10
f 151/22/20 177/18/16 152/17/15
f 177/18/16 151/22/20 13/23/21
f 7/24/22 8/21/19 44/25/23
f 8/21/19 7/24/22 9/26/24
f 159/15/13 8/21/19 9/26/24
f 13/23/21 10/27/25 14/28/26
f 10/27/25 13/23/21 151/22/20
f 11/29/27 10/27/25 151/22/20
f 9/26/24 11/29/27 151/22/20
f 11/29/27 9/26/24 169/30/28
f 7/24/22 169/30/28 9/26/24
f 169/30/28 7/24/22 19/31/29
f 10/27/25 11/29/27 18/32/30
f 4/33/9 12/34/31 181/35/7
f 12/34/31 4/33/9 95/36/32
f 15/37/33 182/38/14 99/39/34
f 182/38/14 15/37/33 16/40/18
f 105/37/35 11/38/27 171/39/36
f 11/38/27 105/37/35 18/40/30
f 14/41/26 104/42/37 13/43/21
f 104/42/37 14/41/26 43/44/38
f 16/45/18 46/46/39 5/47/11
f 46/46/39 16/45/18 15/48/33
f 95/49/32 40/50/8 94/51/40
f 40/50/8 95/49/32 4/52/9
f 18/45/30 17/46/41 10/47/25
f 17/46/41 18/45/30 105/48/35
f 100/49/42 7/50/22 45/51/43
f 7/50/22 100/49/42 19/52/29
f 155/53/44 157/54/45 146/55/46
f 157/54/45 155/53/44 162/56/47
f 20/57/6 21/8/48 3/58/6
f 21/8/48 20/57/6 89/7/48
f 29/8/48 23/6/49 22/5/49
f 23/6/49 29/8/48 24/7/48
f 28/7/6 26/5/5 25/6/5
f 26/5/5 28/7/6 27/8/6
f 28/57/6 29/8/48 27/58/6
f 29/8/48 28/57/6 24/7/48
f 32/8/48 31/6/49 30/5/49
f 31/6/49 32/8/48 36/7/48
f 37/7/6 34/5/5 33/6/5
f 34/5/5 37/7/6 35/8/6
f 37/57/6 32/8/48 35/58/6
f 32/8/48 37/57/6 36/7/48
f 41/59/50 177/60/16 179/61/51
f 177/60/16 41/59/50 42/62/17
f 38/41/12 165/42/52 6/43/10
f 165/42/52 38/41/12 47/44/53
f 39/59/54 8/60/19 164/61/55
f 8/60/19 39/59/54 44/62/23
f 19/33/29 101/34/56 169/35/28
f 101/34/56 19/33/29 100/36/42
f 42/63/17 94/64/40 40/65/8
f 94/64/40 42/63/17 41/66/50
f 43/67/38 10/68/25 17/69/41
f 10/68/25 43/67/38 14/70/26
f 44/63/23 45/64/43 7/65/22
f 45/64/43 44/63/23 39/66/54
f 47/67/53 5/68/11 46/69/39
f 5/68/11 47/67/53 38/70/12
f 54/4/4 49/3/3 48/2/3
f 49/3/3 54/4/4 55/1/4
f 51/2/2 52/1/1 53/4/1
f 52/1/1 54/71/4 53/4/1
f 54/71/4 52/1/1 55/72/4
f 57/1/4 58/2/3 56/3/3
f 58/2/3 57/1/4 63/4/4
f 60/3/2 61/4/1 62/1/1
f 61/71/1 57/1/4 62/72/1
f 57/1/4 61/71/1 63/4/4
f 66/1/4 67/2/3 64/3/3
f 71/4/1 69/3/2 68/2/2
f 69/3/2 71/4/1 70/1/1
f 71/71/1 66/1/4 70/72/1
f 66/1/4 71/71/1 65/4/4
f 77/4/4 73/3/3 72/2/3
f 73/3/3 77/4/4 78/1/4
f 79/1/1 75/2/2 74/3/2
f 75/2/2 79/1/1 76/4/1
f 79/1/1 77/71/4 76/4/1
f 77/71/4 79/1/1 78/72/4
f 82/4/4 83/3/3 80/2/3
f 87/1/1 85/2/2 84/3/2
f 85/2/2 87/1/1 86/4/1
f 87/1/1 82/71/4 86/4/1
f 82/71/4 87/1/1 81/72/4
f 21/8/48 90/6/49 88/5/49
f 90/6/49 21/8/48 89/7/48
f 97/73/57 164/74/55 165/75/52
f 164/74/55 97/73/57 91/76/57
f 92/77/57 91/76/57 97/73/57
f 91/76/57 92/77/57 102/78/57
f 179/79/51 102/78/57 92/77/57
f 92/77/57 96/80/57 179/79/51
f 91/76/57 93/81/57 164/74/55
f 102/78/57 179/79/51 104/82/37
f 179/79/51 94/83/40 41/84/50
f 94/83/40 179/79/51 96/80/57
f 96/80/57 95/85/32 94/83/40
f 95/85/32 96/80/57 12/86/31
f 96/80/57 92/77/57 12/86/31
f 92/77/57 99/87/34 12/86/31
f 99/87/34 92/77/57 97/73/57
f 97/73/57 98/88/57 99/87/34
f 98/88/57 97/73/57 165/75/52
f 47/89/53 98/88/57 165/75/52
f 98/88/57 47/89/53 46/90/39
f 46/90/39 99/87/34 98/88/57
f 99/87/34 46/90/39 15/91/33
f 164/74/55 45/92/43 39/93/54
f 45/92/43 164/74/55 93/81/57
f 93/81/57 100/94/42 45/92/43
f 100/94/42 93/81/57 101/95/56
f 93/81/57 91/76/57 101/95/56
f 91/76/57 171/96/36 101/95/56
f 171/96/36 91/76/57 102/78/57
f 102/78/57 103/97/58 171/96/36
f 103/97/58 102/78/57 104/82/37
f 43/98/38 103/97/58 104/82/37
f 103/97/58 43/98/38 17/99/41
f 17/99/41 171/96/36 103/97/58
f 171/96/36 17/99/41 105/100/35
f 147/101/59 106/102/60 112/103/61
f 106/102/60 147/101/59 145/104/62
f 107/105/63 106/102/60 145/104/62
f 106/102/60 107/105/63 172/106/64
f 144/107/65 172/106/64 107/105/63
f 172/106/64 144/107/65 174/108/66
f 108/109/67 174/108/66 144/107/65
f 174/108/66 108/109/67 173/110/68
f 108/109/67 168/111/69 173/110/68
f 168/111/69 108/109/67 148/112/70
f 109/113/71 168/111/69 148/112/70
f 168/111/69 109/113/71 110/114/72
f 111/115/73 110/114/72 109/113/71
f 110/114/72 111/115/73 170/116/74
f 147/117/59 170/116/74 111/115/73
f 170/116/74 147/117/59 112/118/61
f 121/101/75 113/102/76 156/103/77
f 113/102/76 121/101/75 184/104/78
f 183/105/79 113/102/76 184/104/78
f 113/102/76 183/105/79 158/106/80
f 114/107/81 158/106/80 183/105/79
f 158/106/80 114/107/81 115/108/82
f 180/109/83 115/108/82 114/107/81
f 115/108/82 180/109/83 160/110/84
f 180/109/83 117/111/85 160/110/84
f 117/111/85 180/109/83 116/112/86
f 118/113/87 117/111/85 116/112/86
f 117/111/85 118/113/87 161/114/88
f 119/115/89 161/114/88 118/113/87
f 161/114/88 119/115/89 120/116/90
f 121/117/75 120/116/90 119/115/89
f 120/116/90 121/117/75 156/118/77
f 122/116/91 176/117/92 130/118/93
f 176/117/92 122/116/91 123/115/94
f 149/114/95 123/115/94 122/116/91
f 123/115/94 149/114/95 124/113/96
f 125/111/97 124/113/96 149/114/95
f 124/113/96 125/111/97 178/112/98
f 125/111/97 126/109/99 178/112/98
f 126/109/99 125/111/97 153/110/100
f 154/108/101 126/109/99 153/110/100
f 126/109/99 154/108/101 127/107/102
f 129/106/103 127/107/102 154/108/101
f 127/107/102 129/106/103 128/105/104
f 150/102/105 128/105/104 129/106/103
f 128/105/104 150/102/105 175/104/106
f 150/102/105 176/101/92 175/104/106
f 176/101/92 150/102/105 130/103/93
f 131/119/107 159/120/13 135/121/108
f 141/122/109 159/120/13 131/119/107
f 159/120/13 141/122/109 140/123/110
f 157/124/45 159/120/13 140/123/110
f 132/125/111 157/124/45 140/123/110
f 157/124/45 132/125/111 146/126/46
f 132/125/111 9/127/24 146/126/46
f 137/128/112 9/127/24 132/125/111
f 9/127/24 137/128/112 133/129/113
f 9/127/24 133/129/113 134/130/114
f 135/121/108 9/127/24 134/130/114
f 9/127/24 135/121/108 159/120/13
f 137/106/112 136/107/115 133/108/113
f 136/107/115 137/106/112 138/105/116
f 132/102/111 138/105/116 137/106/112
f 138/105/116 132/102/111 139/104/117
f 132/102/111 142/101/118 139/104/117
f 142/101/118 132/102/111 140/103/110
f 141/116/109 142/117/118 140/118/110
f 142/117/118 141/116/109 166/115/119
f 131/114/107 166/115/119 141/116/109
f 166/115/119 131/114/107 143/113/120
f 135/111/108 143/113/120 131/114/107
f 143/113/120 135/111/108 167/112/121
f 135/111/108 163/109/122 167/112/121
f 163/109/122 135/111/108 134/110/114
f 133/108/113 163/109/122 134/110/114
f 163/109/122 133/108/113 136/107/115
f 108/121/67 151/127/20 148/130/70
f 151/127/20 108/121/67 9/120/24
f 144/119/65 9/120/24 108/121/67
f 107/122/63 9/120/24 144/119/65
f 9/120/24 107/122/63 145/123/62
f 145/123/62 146/124/46 9/120/24
f 147/125/59 146/124/46 145/123/62
f 146/124/46 147/125/59 155/126/44
f 155/126/44 147/125/59 151/127/20
f 111/128/73 151/127/20 147/125/59
f 109/129/71 151/127/20 111/128/73
f 151/127/20 109/129/71 148/130/70
f 125/125/97 155/124/44 153/123/100
f 155/124/44 125/125/97 162/126/47
f 125/125/97 152/127/15 162/126/47
f 149/128/95 152/127/15 125/125/97
f 122/129/91 152/127/15 149/128/95
f 152/127/15 122/129/91 130/130/93
f 150/121/105 152/127/15 130/130/93
f 152/127/15 150/121/105 151/120/20
f 151/120/20 150/121/105 129/119/103
f 151/120/20 129/119/103 154/122/101
f 151/120/20 154/122/101 153/123/100
f 155/124/44 151/120/20 153/123/100
f 113/125/76 162/124/47 156/123/77
f 162/124/47 113/125/76 157/126/45
f 157/126/45 113/125/76 159/127/13
f 158/128/80 159/127/13 113/125/76
f 115/129/82 159/127/13 158/128/80
f 159/127/13 115/129/82 160/130/84
f 117/121/85 159/127/13 160/130/84
f 159/127/13 117/121/85 152/120/15
f 161/119/88 152/120/15 117/121/85
f 120/122/90 152/120/15 161/119/88
f 152/120/15 120/122/90 156/123/77
f 156/123/77 162/124/47 152/120/15
f 163/131/122 6/132/10 167/133/121
f 6/132/10 163/131/122 8/134/19
f 136/135/115 8/134/19 163/131/122
f 136/135/115 164/136/55 8/134/19
f 164/136/55 136/135/115 138/137/116
f 139/138/117 164/136/55 138/137/116
f 142/139/118 164/136/55 139/138/117
f 164/136/55 142/139/118 165/140/52
f 166/141/119 165/140/52 142/139/118
f 166/141/119 6/132/10 165/140/52
f 6/132/10 166/141/119 143/142/120
f 167/133/121 6/132/10 143/142/120
f 168/143/69 169/144/28 173/145/68
f 169/144/28 168/143/69 11/146/27
f 110/147/72 11/146/27 168/143/69
f 170/148/74 11/146/27 110/147/72
f 11/146/27 170/148/74 171/149/36
f 170/148/74 112/150/61 171/149/36
f 106/151/60 171/149/36 112/150/61
f 171/149/36 106/151/60 101/152/56
f 172/153/64 101/152/56 106/151/60
f 172/153/64 169/144/28 101/152/56
f 169/144/28 172/153/64 174/154/66
f 174/154/66 173/145/68 169/144/28
f 176/155/92 13/132/21 175/156/106
f 13/132/21 176/155/92 177/134/16
f 123/157/94 177/134/16 176/155/92
f 123/157/94 179/136/51 177/134/16
f 179/136/51 123/157/94 124/137/96
f 179/136/51 124/137/96 178/138/98
f 126/139/99 179/136/51 178/138/98
f 179/136/51 126/139/99 104/140/37
f 127/141/102 104/140/37 126/139/99
f 128/158/104 104/140/37 127/141/102
f 104/140/37 128/158/104 13/132/21
f 13/132/21 128/158/104 175/156/106
f 180/143/83 181/144/7 116/145/86
f 181/144/7 180/143/83 182/146/14
f 114/147/81 182/146/14 180/143/83
f 183/148/79 182/146/14 114/147/81
f 182/146/14 183/148/79 99/149/34
f 183/148/79 184/150/78 99/149/34
f 121/151/75 99/149/34 184/150/78
f 99/149/34 121/151/75 12/152/31
f 119/153/89 12/152/31 121/151/75
f 119/153/89 181/144/7 12/152/31
f 181/144/7 119/153/89 118/154/87
f 118/154/87 116/145/86 181/144/7
